<svg version="1" xmlns="http://www.w3.org/2000/svg" width="933.333" height="933.333" viewBox="0 0 700.000000 700.000000"><path d="M287.8 187.5c-.2.2-7.3.6-15.8 1-8.5.3-18.2.8-21.5 1-3.3.2-10 .7-15 1-8.7.6-16 1.1-25.6 1.9-2.5.2-8.3.7-13 1.1-4.6.3-9.5.8-10.9 1-2.3.4-10.2 1.3-17.5 1.9-6.5.7-25.8 3.2-30.5 4.1-.8.1-4 .6-7 1s-6.4.9-7.5 1.1c-1.1.3-3.6.7-5.5 1-3.7.5-14.1 2.5-25.5 4.8-35.2 7.1-64.7 18.1-76.6 28.5-17.7 15.4-7.4 30.4 30.1 44.2 13.2 4.8 33.8 10.2 52.5 13.8 6.1 1.2 13.3 2.5 16 3.1 2.8.5 6.3 1.2 7.9 1.4 3.7.7 12.9 2.1 15.1 2.4.7.1.8 2.8.3 7.9-.4 4.3-1 10.5-1.3 13.8-.3 3.3-.7 8-1 10.5-.2 2.5-.6 7.6-1 11.5-.3 3.8-.7 8.1-1 9.5-.2 1.4-.7 5.9-1 10-.4 4.1-.8 9.1-1 11-.2 1.9-.6 7.1-1 11.5-.3 4.4-.8 9.1-1 10.5-.2 1.4-.7 6.1-1 10.5-.3 4.4-.8 8.7-1 9.5-.2.8-.7 5.5-1 10.4-.4 4.9-.8 10.1-1 11.6-.2 1.4-.6 6.4-1 11.1-.3 4.6-.7 9.5-1 10.9-.2 1.4-.7 5.9-1 10-.4 4.1-.8 8.6-1 10-.2 1.4-.6 6.1-1 10.5-.3 4.4-.8 9.8-1 12-.7 5.7-1.9 18.3-3 32.5-.3 3.6-.7 7.6-1 9-.2 1.4-.7 5.9-1 10-.3 4.1-.7 8.4-.9 9.5-.2 1.1-.7 6.3-1.1 11.5-.4 5.2-.9 10.3-1 11.2-.2 1-.7 5.7-1 10.6-.4 4.8-.8 9.8-1 11.2-.3 2.1-.9 8.3-2 20.2-.3 3.1 4.9 8.9 10.6 11.8 7.5 3.9 22.6 8.8 32.9 10.7 1.4.2 4.4.8 6.8 1.4 2.3.5 5.9 1.2 7.8 1.5 2 .3 4.6.8 5.8 1 3.4.7 29.6 4.2 36.1 4.9 3.3.4 7.4.8 9 1 1.7.2 6.4.7 10.5 1 4.1.4 9.1.8 11 1 1.9.1 8.7.6 15 1 6.3.4 13.5.8 16 1 39.6 3.1 136.6 2.1 183-1.9 1.9-.2 7.6-.7 12.5-1.1 5-.4 9.8-.9 10.8-1.1 1-.2 5.3-.6 9.5-1 4.2-.3 8.4-.7 9.2-.9.8-.2 5.1-.8 9.5-1.5 4.4-.6 8.9-1.3 10-1.4 1.1-.2 4-.7 6.5-1.1 24.3-3.7 46.3-10.1 55.7-16.1 5.6-3.6 7.3-5.7 7.3-9.4 0-.6.7-1 1.6-1 1.2 0 1.4-.7 1-2.7-.3-1.6-.8-6.9-1.1-11.8-.4-5-.8-10.4-1-12-.2-1.7-.7-7.1-1-12-.3-5-.7-10-.9-11-.2-1.1-.7-6.7-1.1-12.5-.4-5.8-.8-11.2-1-12-.1-.8-.6-5.6-.9-10.5-.4-5-.9-10.8-1.1-13-.2-2.2-.7-7.2-1-11-.3-3.9-.7-9-1-11.5-.4-4.2-1.1-12-2-23.5-.2-2.8-.7-8.1-1-11.9-.3-3.7-.8-9.4-1.1-12.5-.2-3.1-.7-8.1-.9-11.1-.3-3-.8-8.7-1-12.5-.3-3.9-.7-8.6-1-10.5-.2-1.9-.7-7.3-1.1-12-.3-4.7-.7-9.9-.9-11.5-.1-1.7-.6-7.5-1-13s-.9-10.7-1-11.6c-.2-.8-.6-5.5-.9-10.5-.4-4.9-.9-10.5-1.1-12.4-.2-1.9-.7-6.9-1-11-.3-4.1-.8-9.5-1.1-12-.2-2.5-.6-7.2-.9-10.5-.2-3.3-.7-9.5-1-13.8l-.7-7.7 2.9-.1c1.5 0 3.5-.2 4.3-.4 2.1-.4 8.9-1.6 12.5-2.1 1.7-.3 5.3-.9 8-1.4 2.8-.5 6.6-1.2 8.5-1.5 24.1-3.9 62.2-15 77-22.5 39.1-19.9 23.9-42.9-39.5-59.9-9.9-2.6-17.8-4.4-31.5-7.2-8-1.7-27.3-5-34.5-5.9-3.8-.5-7.9-1.1-9-1.4-1.1-.2-4.5-.7-7.5-1-3-.4-7.1-.9-9-1.1-1.9-.3-5.7-.7-8.5-1-2.7-.3-6.6-.7-8.5-1-3.6-.5-8.4-1-20.5-2-3.8-.3-8.8-.8-11-1-2.2-.3-7.8-.7-12.5-1-4.7-.3-10.7-.8-13.5-1-2.7-.2-10.4-.7-17-1-6.6-.4-15.6-.9-20-1.2-9.2-.6-140.1-1.3-140.7-.8zm293.9 426.7c-.3.7-.5.2-.5-1.2s.2-1.9.5-1.3c.2.7.2 1.9 0 2.5z"/></svg>